<svg width="105" height="105" viewBox="0 0 105 105" fill="none" xmlns="http://www.w3.org/2000/svg">
<g clip-path="url(#clip0_17_5)">
<path d="M88.0607 86.0098C88.048 85.9746 88.0329 85.9403 88.0155 85.9072L69.3616 46.1795L77.7698 32.9807C77.7862 32.9569 77.8012 32.9322 77.815 32.9068C78.4266 31.8871 78.7497 30.7204 78.7497 29.5312C78.7497 28.3421 78.4266 27.1754 77.815 26.1557C77.778 26.09 77.7329 26.0244 77.6919 25.9629L68.9064 13.4121V3.28125C68.9064 2.41101 68.5607 1.57641 67.9453 0.961056C67.3299 0.345702 66.4953 0 65.6251 0C64.7549 0 63.9203 0.345702 63.3049 0.961056C62.6896 1.57641 62.3439 2.41101 62.3439 3.28125V13.2973L60.1864 15.9961C59.2642 17.1487 58.0946 18.0792 56.7641 18.7186C55.4336 19.3581 53.9763 19.6901 52.5001 19.6901C51.0239 19.6901 49.5667 19.3581 48.2362 18.7186C46.9057 18.0792 45.736 17.1487 44.8138 15.9961L42.6564 13.2973V3.28125C42.6564 2.41101 42.3107 1.57641 41.6953 0.961056C41.0799 0.345702 40.2453 0 39.3751 0C38.5049 0 37.6703 0.345702 37.0549 0.961056C36.4396 1.57641 36.0939 2.41101 36.0939 3.28125V13.4121L27.3083 25.9629C27.2673 26.0244 27.2222 26.09 27.1853 26.1557C26.5736 27.1754 26.2505 28.3421 26.2505 29.5312C26.2505 30.7204 26.5736 31.8871 27.1853 32.9068C27.199 32.9322 27.2141 32.9569 27.2304 32.9807L35.6386 46.1795L16.9847 85.9072C16.9673 85.9403 16.9522 85.9746 16.9396 86.0098C16.5121 87.0077 16.3389 88.0961 16.4354 89.1774C16.532 90.2587 16.8953 91.2992 17.4928 92.2056C18.0903 93.112 18.9033 93.856 19.859 94.371C20.8147 94.8859 21.8832 95.1557 22.9689 95.1562H82.0314C83.1173 95.1564 84.1864 94.8871 85.1426 94.3724C86.0989 93.8577 86.9125 93.1138 87.5104 92.2073C88.1084 91.3008 88.4721 90.26 88.5688 89.1784C88.6655 88.0968 88.4924 87.008 88.0648 86.0098H88.0607ZM32.8126 29.5312L39.5515 19.9213L39.6868 20.0936C41.2238 22.0156 43.1735 23.5673 45.3916 24.6336C47.6096 25.6999 50.0391 26.2536 52.5001 26.2536C54.9611 26.2536 57.3906 25.6999 59.6087 24.6336C61.8267 23.5673 63.7764 22.0156 65.3134 20.0936L65.4487 19.9213L72.1876 29.5312L63.8286 42.6562H41.1757L32.8126 29.5312ZM22.9689 88.5938L41.4546 49.2188H63.5374L82.0314 88.5938H22.9689Z" fill="#FF6B00"/>
</g>
<defs>
<clipPath id="clip0_17_5">
<rect width="105" height="105" fill="white"/>
</clipPath>
</defs>
</svg>
