<svg width="108" height="99" viewBox="0 0 108 99" fill="none" xmlns="http://www.w3.org/2000/svg">
<path fill-rule="evenodd" clip-rule="evenodd" d="M27.3513 2.21962C27.6983 1.66503 28.2754 1.19244 29.011 0.86052C29.7466 0.528597 30.6082 0.351943 31.489 0.352479H76.4645C78.2635 0.352479 79.8826 1.09194 80.6022 2.21962L107.588 45.3549C107.851 45.7769 107.973 46.2338 107.945 46.6923C107.918 47.1508 107.741 47.5992 107.428 48.005C107.115 48.4107 106.674 48.7634 106.137 49.0373C105.599 49.3113 104.979 49.4995 104.322 49.5884H104.304C102.955 49.7691 101.606 49.9355 100.257 50.0875C86.4367 51.6345 72.4744 52.5097 58.4743 52.7064V83.542C58.4743 84.3592 58.0005 85.1429 57.157 85.7207C56.3136 86.2985 55.1696 86.6231 53.9768 86.6231C52.7839 86.6231 51.64 86.2985 50.7965 85.7207C49.9531 85.1429 49.4792 84.3592 49.4792 83.542V52.7003C35.4791 52.5035 21.5168 51.6283 7.69698 50.0813C6.34771 49.9334 4.99845 49.7691 3.64918 49.5884H3.6222C2.96469 49.499 2.34466 49.31 1.80746 49.0354C1.27025 48.7607 0.829466 48.4073 0.517335 48.0009C0.205203 47.5945 0.0296225 47.1454 0.003434 46.6866C-0.0227545 46.2277 0.101111 45.7706 0.365973 45.3488L27.3513 2.21346V2.21962ZM10.8902 44.2026C25.1414 45.7539 39.5468 46.545 53.9768 46.5689C68.4097 46.5454 82.8181 45.7542 97.0723 44.2026L73.5051 6.51467H34.4574L10.8902 44.2026Z" fill="#FF6B00"/>
<path d="M40.4216 77.8358C40.6166 78.6414 40.3368 79.4672 39.6436 80.1316C38.9504 80.796 37.9005 81.2447 36.7246 81.379C30.3201 82.1062 25.2109 83.1969 21.8377 84.417C20.5968 84.823 19.4701 85.3758 18.5095 86.05C18.3201 86.1868 18.1624 86.3426 18.0418 86.5121L18.0328 86.5368L17.9968 86.5984V86.6231L18.0148 86.6724L18.1587 86.8757C18.5114 87.2336 18.9528 87.5465 19.463 87.8C20.9472 88.6011 23.3759 89.4638 26.776 90.2341C33.5313 91.7747 43.1471 92.7852 53.9772 92.7852C64.8073 92.7852 74.4231 91.7808 81.1784 90.2341C84.5785 89.4577 87.0072 88.6011 88.4914 87.8C89.0048 87.547 89.4494 87.2342 89.8047 86.8757L89.9396 86.6724L89.9576 86.6231V86.5984C89.8363 86.3941 89.6627 86.2062 89.4449 86.0438C88.4835 85.3719 87.3569 84.8212 86.1167 84.417C82.7345 83.1969 77.6343 82.1062 71.2298 81.379C70.6332 81.3237 70.0589 81.1868 69.541 80.9765C69.0231 80.7663 68.572 80.487 68.2146 80.1551C67.8572 79.8232 67.6006 79.4455 67.4602 79.0445C67.3198 78.6434 67.2983 78.2272 67.3971 77.8203C67.4959 77.4135 67.7129 77.0244 68.0353 76.676C68.3576 76.3277 68.7788 76.0273 69.2738 75.7925C69.7688 75.5578 70.3275 75.3935 70.9169 75.3094C71.5063 75.2254 72.1144 75.2232 72.705 75.3031C79.6312 76.0857 85.7659 77.3243 90.3084 78.9635C94.4551 80.4609 98.9527 82.9257 98.9527 86.6231C98.9527 89.2482 96.614 91.257 94.0594 92.6435C91.4508 94.0485 87.9427 95.1885 84.0208 96.082C76.1231 97.8875 65.4999 98.9474 53.9772 98.9474C42.4545 98.9474 31.8313 97.8875 23.9336 96.082C20.0117 95.1885 16.5036 94.0485 13.895 92.6435C11.3404 91.257 9.00171 89.2482 9.00171 86.6231C9.00171 82.9319 13.4993 80.4609 17.646 78.9635C22.1885 77.3243 28.3232 76.0857 35.2494 75.3031C36.4255 75.1695 37.6308 75.3612 38.6007 75.8361C39.5705 76.311 40.2255 77.0302 40.4216 77.8358Z" fill="#FF6B00"/>
</svg>
