<svg width="105" height="105" viewBox="0 0 105 105" fill="none" xmlns="http://www.w3.org/2000/svg">
<path d="M73.0402 13.9944H58.4431C55.8055 14.0028 55.9042 17.934 58.4431 17.9109H73.0402V19.9206H58.4431C55.8202 19.8975 55.9168 23.8266 58.4431 23.8371H73.0402V25.8909H58.4431C55.8202 25.8909 55.9168 29.8179 58.4431 29.8074H73.0402V31.7646H58.4431C55.8748 31.7835 55.9168 35.7147 58.4431 35.7273H73.0402V37.6887H58.4431C55.8748 37.6803 55.8643 41.6052 58.4431 41.6052H73.0402V43.5624H58.4431C55.8748 43.5708 55.8643 47.4999 58.4431 47.481H73.0402V49.4865H58.4431C55.8748 49.4634 55.8643 53.3883 58.4431 53.403H73.0402V55.356H58.4431C55.8748 55.3539 55.9168 59.2872 58.4431 59.2746H73.0402V97.4085C73.0486 103.219 81.8749 103.114 81.9001 97.4085V8.16898C81.8749 5.51458 79.6951 2.15878 76.1083 2.14828H58.4431C55.8055 2.15038 55.9042 6.08158 58.4431 6.06478L73.0402 6.11308V8.06608H58.4431C55.8097 8.05348 55.9084 11.9826 58.4431 11.9847H73.0402V13.9944ZM57.4393 81.6018C57.4309 74.8188 50.4001 67.5234 42.0001 72.2484V46.305L36.5674 3.51748C36.454 2.38558 35.4943 2.11888 34.8496 2.09998C34.1839 2.11888 32.8504 2.38558 32.7055 3.51748L27.3001 46.305V72.2484C18.9001 67.5234 12.0961 74.865 12.094 81.5493C12.0961 87.4965 16.6741 92.3811 22.8691 92.3664C29.1103 92.3811 33.6001 86.9064 33.6001 81.5493V54.6H35.7001V81.5493C35.7001 87.5469 40.3453 91.9863 45.5071 92.2677C45.421 95.5563 46.4941 100.248 48.5143 102.108C50.8831 104.292 53.7034 101.499 52.5463 99.225C51.4291 97.1082 50.3329 95.8545 51.2233 91.2324C54.9445 89.5104 57.4309 85.8858 57.4393 81.6018ZM23.1085 86.9379C21.6924 86.9379 20.3344 86.3753 19.3331 85.374C18.3318 84.3727 17.7692 83.0147 17.7692 81.5986C17.7692 80.1826 18.3318 78.8245 19.3331 77.8232C20.3344 76.8219 21.6924 76.2594 23.1085 76.2594C26.0191 76.2762 28.39 78.6639 28.411 81.6018C28.4061 83.0097 27.8469 84.359 26.8545 85.3577C25.8621 86.3564 24.5163 86.9241 23.1085 86.9379ZM41.1076 81.6018C41.1125 80.1929 41.6717 78.8426 42.6644 77.8428C43.6571 76.8431 45.0034 76.2743 46.4122 76.2594C47.8211 76.2732 49.1679 76.8417 50.1604 77.8418C51.153 78.8418 51.7114 80.1928 51.7147 81.6018C51.7125 83.0105 51.1542 84.3614 50.1613 85.3607C49.1683 86.36 47.8209 86.9268 46.4122 86.9379C45.004 86.9246 43.6577 86.3572 42.6648 85.3584C41.672 84.3597 41.1125 83.01 41.1076 81.6018Z" fill="#FF6B00"/>
</svg>
