<svg width="108" height="100" viewBox="0 0 108 100" fill="none" xmlns="http://www.w3.org/2000/svg">
<path d="M3.20074 7.09384C3.61543 5.20662 4.90477 3.49233 6.8383 2.25736C8.77183 1.02238 11.2236 0.347209 13.7553 0.352509C16.3866 0.352509 18.7953 1.06473 20.6673 2.24434C22.6979 1.01906 25.2196 0.351938 27.8182 0.352509C30.5215 0.352509 33.0087 1.05978 34.9691 2.24434C36.9066 1.01865 39.3542 0.348736 41.8811 0.352509C44.4128 0.347209 46.8645 1.02238 48.7981 2.25736C50.7316 3.49233 52.0209 5.20662 52.4356 7.09384C53.64 12.663 55.6364 22.9258 55.6364 30.0282C55.6397 33.3686 54.5882 36.6613 52.5692 39.6329C50.5502 42.6045 47.6221 45.1692 44.028 47.114C41.9335 48.2516 40.9091 49.6241 40.9091 50.7988C40.9091 50.8927 40.9124 50.957 40.9189 51.0312C41.2069 53.7416 44.1818 81.8816 44.1818 86.9067C44.1818 90.186 42.4578 93.3311 39.389 95.65C36.3202 97.9688 32.1581 99.2716 27.8182 99.2716C23.4783 99.2716 19.3161 97.9688 16.2474 95.65C13.1786 93.3311 11.4546 90.186 11.4546 86.9067C11.4546 81.8816 14.4295 53.7416 14.7142 51.0312C14.7234 50.9539 14.7277 50.8764 14.7273 50.7988C14.7273 49.6241 13.7062 48.2516 11.6084 47.114C8.01427 45.1692 5.08613 42.6045 3.06717 39.6329C1.04822 36.6613 -0.0032874 33.3686 7.72065e-06 30.0282C7.72065e-06 22.9258 1.99637 12.663 3.20074 7.09384ZM39.2727 31.883C39.2727 32.7028 38.8417 33.4891 38.0745 34.0688C37.3073 34.6485 36.2668 34.9742 35.1818 34.9742C34.0968 34.9742 33.0563 34.6485 32.2891 34.0688C31.5219 33.4891 31.0909 32.7028 31.0909 31.883V9.00793C31.0909 8.35205 30.7461 7.72304 30.1324 7.25927C29.5186 6.7955 28.6862 6.53495 27.8182 6.53495C26.9502 6.53495 26.1178 6.7955 25.504 7.25927C24.8903 7.72304 24.5455 8.35205 24.5455 9.00793V31.883C24.5455 32.7028 24.1145 33.4891 23.3473 34.0688C22.5801 34.6485 21.5395 34.9742 20.4546 34.9742C19.3696 34.9742 18.329 34.6485 17.5618 34.0688C16.7946 33.4891 16.3636 32.7028 16.3636 31.883V8.50591C16.3636 7.98318 16.0888 7.48186 15.5997 7.11223C15.1105 6.7426 14.4471 6.53495 13.7553 6.53495C12.4855 6.53495 11.4644 7.21007 11.2746 8.09293C10.0636 13.6992 8.18183 23.4971 8.18183 30.0282C8.17862 32.3869 8.92087 34.7121 10.3468 36.8103C11.7728 38.9085 13.8412 40.7191 16.38 42.0914C19.7182 43.9016 22.9091 46.9211 22.9091 50.7963C22.9091 51.0386 22.8993 51.2661 22.8731 51.5258C22.5589 54.4612 19.6364 82.208 19.6364 86.9067C19.6364 88.5464 20.4984 90.1189 22.0328 91.2783C23.5672 92.4378 25.6482 93.0891 27.8182 93.0891C29.9881 93.0891 32.0692 92.4378 33.6036 91.2783C35.138 90.1189 36 88.5464 36 86.9067C36 82.208 33.0775 54.4612 32.7665 51.5258C32.7417 51.2839 32.7286 51.0414 32.7273 50.7988C32.7273 46.9211 35.9182 43.8992 39.2564 42.0914C41.7952 40.7191 43.8636 38.9085 45.2896 36.8103C46.7155 34.7121 47.4578 32.3869 47.4545 30.0282C47.4545 23.4971 45.5727 13.6992 44.3618 8.09293C44.2608 7.65285 43.9556 7.25436 43.501 6.96887C43.0464 6.68338 42.4721 6.52955 41.8811 6.53495C41.1893 6.53495 40.5259 6.7426 40.0367 7.11223C39.5475 7.48186 39.2727 7.98318 39.2727 8.50591V31.883ZM96.5455 6.61409V46.7208C96.5455 48.1799 97.1607 54.9558 97.8382 62.3871L97.884 62.8916C98.8004 72.9467 99.8182 84.1641 99.8182 86.9067C99.8182 88.5464 98.9562 90.1189 97.4218 91.2783C95.8874 92.4378 93.8063 93.0891 91.6364 93.0891C89.4664 93.0891 87.3853 92.4378 85.8509 91.2783C84.3166 90.1189 83.4545 88.5464 83.4545 86.9067C83.4545 84.4782 84.2564 74.5764 85.0811 65.095C85.5649 59.5466 86.0635 53.9988 86.5767 48.4519L86.7175 46.9384C86.757 46.5152 86.6808 46.0903 86.4936 45.6903C86.3064 45.2903 86.0122 44.9236 85.6294 44.6132C85.2466 44.3029 84.7832 44.0553 84.2683 43.8861C83.7534 43.7169 83.1979 43.6296 82.6364 43.6296H72.8182C72.1672 43.6296 71.5429 43.4342 71.0826 43.0864C70.6222 42.7385 70.3636 42.2668 70.3636 41.7749V28.1735C70.3635 22.7556 73.0531 17.5347 77.9008 13.5429C82.7486 9.55096 89.4018 7.07848 96.5455 6.61409ZM78.2509 49.812L78.0447 52.0674C77.7371 55.4356 77.3247 59.9809 76.9189 64.6895C76.1073 74.0225 75.2727 84.2136 75.2727 86.9067C75.2727 90.186 76.9967 93.3311 80.0655 95.65C83.1343 97.9688 87.2965 99.2716 91.6364 99.2716C95.9763 99.2716 100.138 97.9688 103.207 95.65C106.276 93.3311 108 90.186 108 86.9067C108 83.9168 106.969 72.5783 106.076 62.7902L106.046 62.4687C105.333 54.6244 104.727 47.9326 104.727 46.7208V3.44373C104.727 1.73738 102.895 0.352509 100.636 0.352509H99C78.6665 0.352509 62.1818 12.8089 62.1818 28.1735V41.7749C62.1818 43.9065 63.3024 45.9507 65.2971 47.458C67.2918 48.9653 69.9972 49.812 72.8182 49.812H78.2509Z" fill="#FF6B00"/>
</svg>
